<?xml version="1.0" encoding="utf-8"?>
<!-- Generator: Adobe Illustrator 24.0.2, SVG Export Plug-In . SVG Version: 6.00 Build 0)  -->
<svg version="1.1" id="OJO_VECTOR" xmlns="http://www.w3.org/2000/svg" xmlns:xlink="http://www.w3.org/1999/xlink" x="0px" y="0px"
	 viewBox="0 0 595.28 841.89" style="enable-background:new 0 0 595.28 841.89;" xml:space="preserve">
<style type="text/css">
	.st0{fill:none;stroke:#000000;stroke-miterlimit:10;}
	.st1{stroke:#0A0A0A;stroke-miterlimit:10;}
	.st2{fill:#0A060B;stroke:#000000;stroke-miterlimit:10;}
	.st3{fill:#070606;stroke:#000000;stroke-miterlimit:10;}
	.st4{fill:#080508;stroke:#000000;stroke-miterlimit:10;}
	.st5{fill:#0D090D;stroke:#000000;stroke-miterlimit:10;}
	.st6{fill:#0E0A0E;stroke:#000000;stroke-miterlimit:10;}
	.st7{stroke:#020202;stroke-miterlimit:10;}
	.st8{fill:none;stroke:#0A0A0A;stroke-miterlimit:10;}
	.st9{fill:#FFFFFF;stroke:#0A0A0A;stroke-miterlimit:10;}
</style>
<path class="st0" d="M346.1,227.77c0.84-0.02,1.68-0.03,2.53-0.03c57.64,0,104.37,46.4,104.37,103.64
	c0,57.23-46.73,103.63-104.37,103.63c-56.09,0-101.84-43.92-104.27-99.01"/>
<path class="st1" d="M339.72,163.19c-92.47,0-167.44,75.05-167.44,167.62s74.97,167.61,167.44,167.61s167.43-75.04,167.43-167.61
	S432.19,163.19,339.72,163.19z M353.48,471.41c-75.27,0-136.28-60.56-136.28-135.26S278.21,200.9,353.48,200.9
	c75.26,0,136.27,60.55,136.27,135.25S428.74,471.41,353.48,471.41z"/>
<path class="st0" d="M346.1,227.77c0.84-0.02,1.68-0.03,2.53-0.03c57.64,0,104.37,46.4,104.37,103.64
	c0,57.23-46.73,103.63-104.37,103.63c-56.09,0-101.84-43.92-104.27-99.01"/>
<path class="st2" d="M470.87,340.8c0,62.74-50.73,113.6-113.31,113.6s-113.31-50.86-113.31-113.6c0-1.61,0.03-3.21,0.11-4.8
	c2.43,55.09,48.18,99.01,104.27,99.01c57.64,0,104.37-46.4,104.37-103.63c0-57.24-46.73-103.64-104.37-103.64
	c-0.85,0-1.69,0.01-2.53,0.03c3.77-0.39,7.59-0.58,11.46-0.58C420.14,227.19,470.87,278.05,470.87,340.8z"/>
<path class="st0" d="M346.1,227.77c0.84-0.02,1.68-0.03,2.53-0.03c57.64,0,104.37,46.4,104.37,103.64
	c0,57.23-46.73,103.63-104.37,103.63c-56.09,0-101.84-43.92-104.27-99.01"/>
<path class="st0" d="M346.1,227.77c0.84-0.02,1.68-0.03,2.53-0.03c57.64,0,104.37,46.4,104.37,103.64
	c0,57.23-46.73,103.63-104.37,103.63c-56.09,0-101.84-43.92-104.27-99.01"/>
<path class="st3" d="M310.3,291.63c1.15-6.47,1.35-13.24-0.63-19.5c-1.98-6.26-6.37-11.97-12.44-14.46
	c0.24,0.22,0.49,0.43,0.73,0.65c-5.35-3.1-12.13-3.18-17.92-1.02c-5.8,2.15-10.67,6.35-14.47,11.23c-5.69,7.3-9.22,16.61-8.23,25.81
	s7.04,18.06,15.82,20.99c6.14,2.05,13.05,1.11,18.85-1.77s10.55-7.58,14.28-12.88c-4.04,7.62-10.4,14.14-18.29,17.6
	c-13.49,5.91-30.75,1.14-38-12.06c-2.86-5.21-4.06-11.21-4.1-17.15c-0.08-12,4.77-24.13,13.75-32.09
	c8.97-7.96,22.07-11.32,33.54-7.8c4.38,1.35,8.52,3.67,11.65,7.02c4.24,4.54,6.42,10.73,7.01,16.92
	C312.43,279.3,311.54,285.53,310.3,291.63z"/>
<path class="st4" d="M304.55,267.84c-3.01-0.45-5.99,1.29-8.09,3.51c-3.14,3.34-4.91,7.95-4.81,12.54c0.05,2.4,0.62,4.83,1.94,6.83
	s3.45,3.54,5.83,3.83c2.87,0.35,5.63-1.06,8.18-2.43c-2.58,6.83-6.88,13.2-13.02,17.16c-5.76,3.73-13.33,5.13-19.86,2.69
	c-5.99-2.24-9.64-9.04-10.55-15.07c-0.9-5.97,0.44-12.12,2.91-17.64c2.89-6.43,7.48-12.29,13.69-15.62
	c6.21-3.33,14.16-3.8,20.24-0.24c1.74,1.02,3.39,2.49,3.78,4.47C304.72,267.87,304.64,267.85,304.55,267.84z"/>
<ellipse transform="matrix(0.2907 -0.9568 0.9568 0.2907 -168.56 605.7491)" class="st5" cx="324.28" cy="416.56" rx="8.09" ry="12.25"/>
<ellipse transform="matrix(0.8339 -0.5519 0.5519 0.8339 -81.691 275.0255)" class="st6" cx="416.12" cy="273.25" rx="6.19" ry="9.89"/>
<ellipse transform="matrix(0.666 -0.7459 0.7459 0.666 -56.9873 383.4001)" class="st6" cx="399.67" cy="255.34" rx="4.76" ry="7.61"/>
<ellipse transform="matrix(0.4395 -0.8983 0.8983 0.4395 -12.4909 485.8647)" class="st6" cx="383.06" cy="252.94" rx="3.75" ry="6.05"/>
<ellipse transform="matrix(0.9955 -0.0951 0.0951 0.9955 -38.7724 36.0044)" class="st6" cx="358.42" cy="424.85" rx="9.1" ry="5.98"/>
<ellipse transform="matrix(0.9792 -0.203 0.203 0.9792 -75.3727 84.0652)" class="st6" cx="372.21" cy="409.55" rx="7.51" ry="5"/>
<path class="st7" d="M541.4,329.05c0.05,5.92-0.19,11.83-0.73,17.73c-4.99,54.4-35.38,105.93-80.58,136.61
	c-33.42,22.69-74.43,33.64-114.71,31.57c-10.12-0.52-20.2-1.86-30.1-4.04c-1.41-0.31-4.99-0.43-5.52-1.98
	c-0.88-2.6,2.52-1.77,3.66-1.67c4.67,0.45,9.29,1.31,13.98,1.68c18.73,1.46,37.67-0.16,55.92-4.56c35.4-8.53,68.44-27.56,92.54-55
	c41.74-47.53,55.04-118.3,33.39-177.74c-21.65-59.44-77.34-105.08-139.87-114.64c-30.12-4.6-60.79-1.38-91.2,0.6
	c-73.23,4.77-151.56,0.85-212.16-40.53c12.72-15.48,25.44-30.96,38.15-46.44c9.49,16.81,18.99,33.62,28.48,50.43
	c20.97-18.39,41.93-36.79,62.9-55.18c7.72,22.75,15.43,45.49,23.15,68.24c22.15-20.18,44.31-40.35,66.46-60.53
	c12.46,22.55,24.92,45.1,37.38,67.65c15.77-11.5,31.55-23,47.32-34.5c6.53,18.99,17.17,41.32,37.19,42.75
	c10.65,0.76,20.6-5.05,29.21-11.36c7.64,25.14,31.3,41.19,49.99,59.65C520.92,232.02,540.99,280.41,541.4,329.05z"/>
<path class="st8" d="M177.24,371.46c-0.02-0.1-0.04-0.2-0.07-0.31c-3.09-13.53-4.72-27.62-4.72-42.1c0-3.74,0.11-7.46,0.32-11.14
	c0.01-0.06,0.01-0.12,0.01-0.18"/>
<path class="st9" d="M122.19,134.68L103.63,84.3l3.01,42.96C106.65,127.27,120,131.13,122.19,134.68z"/>
<polygon class="st9" points="191.8,145.29 187.82,84.3 208.37,148.6 "/>
<polygon class="st9" points="292.56,148.6 283.67,87.1 312.03,144.81 "/>
<path class="st9" d="M368.89,148.6v-30.75l14.17,33.67C383.06,151.52,372.25,147.7,368.89,148.6z"/>
<path class="st9" d="M439.97,163.19c0,0-6.7-3.44-11.34-4.09c-4.64-0.65,5.67-10.5,5.67-10.5L439.97,163.19z"/>
<path class="st9" d="M204.31,147.79"/>
</svg>
